<svg width="225" height="86" viewBox="0 0 225 86" fill="none" xmlns="http://www.w3.org/2000/svg">
<g filter="url(#filter0_dd_23_107)">
<path d="M41.2498 20.0023V26.9654C33.4294 28.0882 27.4166 34.8161 27.4166 42.9435C27.4166 51.8571 34.6421 59.0831 43.5553 59.0831C47.1796 59.0831 50.5273 57.8887 53.2201 55.869L58.1471 60.7962C54.1723 64.0471 49.0886 66 43.5553 66C30.8219 66 20.5 55.6776 20.5 42.9435C20.5 30.9887 29.5999 21.1574 41.2498 20.0023ZM66.4954 45.2492C66.0343 49.8858 64.2037 54.119 61.4071 57.5337L56.4802 52.6088C58.0641 50.4968 59.1384 47.9837 59.5304 45.2492H66.4977H66.4954ZM45.8655 20.0023C56.7568 21.0837 65.4164 29.746 66.5 40.6379H59.5327C58.5229 33.571 52.9319 27.9799 45.8655 26.9677V20V20.0023Z" fill="#A0C4B0" fill-opacity="0.83"/>
<path d="M44.2083 37.4102L37.167 43.1731V49.3928C37.167 49.5538 37.2313 49.7083 37.3459 49.8222C37.4605 49.936 37.616 50 37.778 50L42.0578 49.989C42.2193 49.9882 42.3739 49.9239 42.4879 49.8101C42.6018 49.6963 42.6658 49.5423 42.6658 49.3818V45.7495C42.6658 45.5885 42.7301 45.434 42.8447 45.3202C42.9593 45.2063 43.1148 45.1423 43.2768 45.1423H45.7211C45.8832 45.1423 46.0386 45.2063 46.1532 45.3202C46.2678 45.434 46.3322 45.5885 46.3322 45.7495V49.3791C46.3319 49.459 46.3475 49.5382 46.3781 49.6121C46.4087 49.686 46.4537 49.7531 46.5105 49.8097C46.5672 49.8663 46.6347 49.9112 46.7089 49.9418C46.7832 49.9725 46.8628 49.9882 46.9432 49.9882L51.2214 50C51.3835 50 51.5389 49.936 51.6535 49.8222C51.7681 49.7083 51.8325 49.5538 51.8325 49.3928V43.1689L44.7927 37.4102C44.7099 37.344 44.6068 37.3078 44.5005 37.3078C44.3942 37.3078 44.2911 37.344 44.2083 37.4102ZM55.3308 41.3271L52.138 38.712V33.4554C52.138 33.3346 52.0897 33.2188 52.0038 33.1334C51.9178 33.048 51.8013 33 51.6797 33H49.541C49.4195 33 49.3029 33.048 49.2169 33.1334C49.131 33.2188 49.0827 33.3346 49.0827 33.4554V36.211L45.6634 33.4156C45.3353 33.1472 44.9235 33.0005 44.4986 33.0005C44.0736 33.0005 43.6619 33.1472 43.3337 33.4156L33.6663 41.3271C33.6199 41.3652 33.5815 41.4121 33.5533 41.4649C33.5251 41.5178 33.5077 41.5757 33.502 41.6352C33.4964 41.6948 33.5026 41.7549 33.5203 41.8121C33.538 41.8693 33.5668 41.9224 33.6052 41.9685L34.5791 43.145C34.6174 43.1912 34.6645 43.2295 34.7177 43.2577C34.7709 43.2858 34.8291 43.3033 34.8891 43.309C34.9491 43.3148 35.0096 43.3087 35.0672 43.2912C35.1249 43.2736 35.1785 43.245 35.2249 43.2068L44.2083 35.8543C44.2911 35.788 44.3942 35.7518 44.5005 35.7518C44.6068 35.7518 44.7099 35.788 44.7927 35.8543L53.7764 43.2068C53.8228 43.245 53.8763 43.2737 53.9339 43.2913C53.9914 43.3088 54.0519 43.315 54.1118 43.3094C54.1718 43.3037 54.23 43.2864 54.2832 43.2584C54.3364 43.2304 54.3835 43.1922 54.4219 43.1461L55.3958 41.9696C55.4341 41.9233 55.4628 41.8698 55.4803 41.8124C55.4978 41.755 55.5037 41.6947 55.4977 41.635C55.4917 41.5753 55.4738 41.5173 55.4452 41.4645C55.4165 41.4117 55.3777 41.365 55.3308 41.3271Z" fill="#A0C4B0" fill-opacity="0.83"/>
<path d="M91.42 34.008V51H86.092V44.376H81.028V51H75.7V34.008H81.028V40.128H86.092V34.008H91.42ZM100.969 51.168C99.6092 51.168 98.3852 50.888 97.2972 50.328C96.2092 49.768 95.3532 48.968 94.7292 47.928C94.1212 46.872 93.8172 45.64 93.8172 44.232C93.8172 42.824 94.1212 41.6 94.7292 40.56C95.3532 39.504 96.2092 38.696 97.2972 38.136C98.3852 37.576 99.6092 37.296 100.969 37.296C102.329 37.296 103.553 37.576 104.641 38.136C105.729 38.696 106.577 39.504 107.185 40.56C107.809 41.6 108.121 42.824 108.121 44.232C108.121 45.64 107.809 46.872 107.185 47.928C106.577 48.968 105.729 49.768 104.641 50.328C103.553 50.888 102.329 51.168 100.969 51.168ZM100.969 46.56C101.465 46.56 101.881 46.368 102.217 45.984C102.553 45.584 102.721 45 102.721 44.232C102.721 43.464 102.553 42.888 102.217 42.504C101.881 42.104 101.465 41.904 100.969 41.904C100.473 41.904 100.057 42.104 99.7212 42.504C99.3852 42.888 99.2172 43.464 99.2172 44.232C99.2172 45 99.3772 45.584 99.6972 45.984C100.033 46.368 100.457 46.56 100.969 46.56ZM128.587 37.368C130.315 37.368 131.651 37.888 132.595 38.928C133.555 39.968 134.035 41.376 134.035 43.152V51H128.731V43.824C128.731 43.248 128.555 42.8 128.203 42.48C127.867 42.144 127.411 41.976 126.835 41.976C126.243 41.976 125.779 42.144 125.443 42.48C125.107 42.8 124.939 43.248 124.939 43.824V51H119.635V43.824C119.635 43.248 119.459 42.8 119.107 42.48C118.771 42.144 118.315 41.976 117.739 41.976C117.147 41.976 116.683 42.144 116.347 42.48C116.011 42.8 115.843 43.248 115.843 43.824V51H110.515V37.464H115.843V39.288C116.227 38.712 116.747 38.248 117.403 37.896C118.075 37.544 118.859 37.368 119.755 37.368C120.731 37.368 121.595 37.584 122.347 38.016C123.099 38.432 123.699 39.024 124.147 39.792C124.643 39.088 125.275 38.512 126.043 38.064C126.811 37.6 127.659 37.368 128.587 37.368ZM150.167 44.112C150.167 44.48 150.143 44.832 150.095 45.168H141.527C141.607 46.336 142.095 46.92 142.991 46.92C143.567 46.92 143.983 46.656 144.239 46.128H149.879C149.687 47.088 149.279 47.952 148.655 48.72C148.047 49.472 147.271 50.072 146.327 50.52C145.399 50.952 144.375 51.168 143.255 51.168C141.911 51.168 140.711 50.888 139.655 50.328C138.615 49.768 137.799 48.968 137.207 47.928C136.631 46.872 136.343 45.64 136.343 44.232C136.343 42.824 136.631 41.6 137.207 40.56C137.799 39.504 138.615 38.696 139.655 38.136C140.711 37.576 141.911 37.296 143.255 37.296C144.599 37.296 145.791 37.576 146.831 38.136C147.887 38.68 148.703 39.464 149.279 40.488C149.871 41.512 150.167 42.72 150.167 44.112ZM144.767 42.84C144.767 42.392 144.623 42.056 144.335 41.832C144.047 41.592 143.687 41.472 143.255 41.472C142.311 41.472 141.759 41.928 141.599 42.84H144.767ZM168.292 34.008V51H162.964V44.376H157.9V51H152.572V34.008H157.9V40.128H162.964V34.008H168.292ZM185.737 37.464V51H180.409V48.936C179.993 49.576 179.433 50.096 178.729 50.496C178.041 50.896 177.217 51.096 176.257 51.096C174.705 51.096 173.489 50.576 172.609 49.536C171.745 48.496 171.313 47.088 171.313 45.312V37.464H176.617V44.64C176.617 45.28 176.785 45.792 177.121 46.176C177.473 46.544 177.937 46.728 178.513 46.728C179.105 46.728 179.569 46.544 179.905 46.176C180.241 45.792 180.409 45.28 180.409 44.64V37.464H185.737ZM194.192 39.312C194.528 38.688 195.008 38.2 195.632 37.848C196.272 37.48 197.032 37.296 197.912 37.296C198.968 37.296 199.92 37.576 200.768 38.136C201.616 38.68 202.28 39.48 202.76 40.536C203.256 41.576 203.504 42.808 203.504 44.232C203.504 45.656 203.256 46.896 202.76 47.952C202.28 48.992 201.616 49.792 200.768 50.352C199.92 50.896 198.968 51.168 197.912 51.168C197.032 51.168 196.272 50.992 195.632 50.64C195.008 50.272 194.528 49.776 194.192 49.152V51H188.864V33.24H194.192V39.312ZM198.104 44.232C198.104 43.512 197.92 42.952 197.552 42.552C197.184 42.152 196.712 41.952 196.136 41.952C195.56 41.952 195.088 42.152 194.72 42.552C194.352 42.952 194.168 43.512 194.168 44.232C194.168 44.952 194.352 45.512 194.72 45.912C195.088 46.312 195.56 46.512 196.136 46.512C196.712 46.512 197.184 46.312 197.552 45.912C197.92 45.512 198.104 44.952 198.104 44.232Z" fill="url(#paint0_linear_23_107)"/>
</g>
<defs>
<filter id="filter0_dd_23_107" x="9.5" y="13" width="206" height="68" filterUnits="userSpaceOnUse" color-interpolation-filters="sRGB">
<feFlood flood-opacity="0" result="BackgroundImageFix"/>
<feColorMatrix in="SourceAlpha" type="matrix" values="0 0 0 0 0 0 0 0 0 0 0 0 0 0 0 0 0 0 127 0" result="hardAlpha"/>
<feOffset dy="1"/>
<feGaussianBlur stdDeviation="1.5"/>
<feColorMatrix type="matrix" values="0 0 0 0 0 0 0 0 0 0 0 0 0 0 0 0 0 0 0.3 0"/>
<feBlend mode="normal" in2="BackgroundImageFix" result="effect1_dropShadow_23_107"/>
<feColorMatrix in="SourceAlpha" type="matrix" values="0 0 0 0 0 0 0 0 0 0 0 0 0 0 0 0 0 0 127 0" result="hardAlpha"/>
<feMorphology radius="3" operator="dilate" in="SourceAlpha" result="effect2_dropShadow_23_107"/>
<feOffset dy="4"/>
<feGaussianBlur stdDeviation="4"/>
<feColorMatrix type="matrix" values="0 0 0 0 0 0 0 0 0 0 0 0 0 0 0 0 0 0 0.15 0"/>
<feBlend mode="normal" in2="effect1_dropShadow_23_107" result="effect2_dropShadow_23_107"/>
<feBlend mode="normal" in="SourceGraphic" in2="effect2_dropShadow_23_107" result="shape"/>
</filter>
<linearGradient id="paint0_linear_23_107" x1="90.3108" y1="59" x2="191.496" y2="16.8649" gradientUnits="userSpaceOnUse">
<stop stop-color="#A0C4B0" stop-opacity="0.83"/>
<stop offset="1" stop-color="#2E2E38"/>
</linearGradient>
</defs>
</svg>
