<svg width="400" height="117" viewBox="0 0 400 117" fill="none" xmlns="http://www.w3.org/2000/svg">
<g filter="url(#filter0_dd_23_61)">
<path d="M53.8528 7.00476V21.385C37.7021 23.7039 25.2843 37.5985 25.2843 54.3833C25.2843 72.7919 40.2066 87.715 58.6143 87.715C66.0992 87.715 73.0128 85.2485 78.5742 81.0772L88.7494 91.2529C80.5407 97.9669 70.0417 102 58.6143 102C32.3169 102 11 80.682 11 54.3833C11 29.6941 29.7934 9.39036 53.8528 7.00476ZM105.99 59.145C105.038 68.7207 101.258 77.4631 95.482 84.5152L85.3068 74.3442C88.5779 69.9826 90.7968 64.7923 91.6062 59.145H105.995H105.99ZM63.3852 7.00476C85.8782 9.23798 103.762 27.1276 106 49.6217H91.611C89.5255 35.0272 77.979 23.4801 63.3852 21.3898V7V7.00476Z" fill="#A0C4B0" fill-opacity="0.83"/>
<path d="M58.9785 42.1511L44.4666 54.2276V67.2616C44.4666 67.5991 44.5993 67.9227 44.8355 68.1614C45.0716 68.4 45.392 68.5341 45.726 68.5341L54.5463 68.511C54.8792 68.5093 55.1979 68.3745 55.4327 68.1361C55.6676 67.8976 55.7994 67.5749 55.7994 67.2385V59.6268C55.7994 59.2893 55.9321 58.9657 56.1682 58.727C56.4044 58.4884 56.7247 58.3543 57.0587 58.3543H62.0962C62.4302 58.3543 62.7506 58.4884 62.9867 58.727C63.2229 58.9657 63.3556 59.2893 63.3556 59.6268V67.233C63.3551 67.4004 63.3873 67.5663 63.4503 67.7211C63.5134 67.876 63.6061 68.0167 63.7231 68.1353C63.8401 68.2539 63.9791 68.348 64.1321 68.4122C64.2852 68.4764 64.4493 68.5094 64.615 68.5094L73.4322 68.5341C73.7662 68.5341 74.0865 68.4 74.3227 68.1614C74.5588 67.9227 74.6915 67.5991 74.6915 67.2616V54.2188L60.1828 42.1511C60.0122 42.0122 59.7997 41.9364 59.5806 41.9364C59.3616 41.9364 59.1491 42.0122 58.9785 42.1511ZM81.9014 50.3593L75.3212 44.879V33.8634C75.3212 33.6103 75.2217 33.3676 75.0446 33.1886C74.8674 33.0096 74.6272 32.9091 74.3767 32.9091H69.9689C69.7184 32.9091 69.4781 33.0096 69.301 33.1886C69.1239 33.3676 69.0244 33.6103 69.0244 33.8634V39.638L61.9774 33.7799C61.3011 33.2176 60.4525 32.9102 59.5767 32.9102C58.7009 32.9102 57.8523 33.2176 57.176 33.7799L37.252 50.3593C37.1563 50.4392 37.0772 50.5373 37.0191 50.6481C36.961 50.7589 36.9251 50.8801 36.9134 51.005C36.9017 51.1298 36.9144 51.2557 36.9509 51.3755C36.9874 51.4954 37.0469 51.6068 37.126 51.7033L39.1332 54.1687C39.212 54.2657 39.3091 54.3459 39.4187 54.4049C39.5283 54.4639 39.6484 54.5005 39.772 54.5125C39.8957 54.5245 40.0204 54.5118 40.1392 54.4751C40.258 54.4383 40.3684 54.3783 40.4642 54.2984L58.9785 38.8904C59.1491 38.7515 59.3616 38.6758 59.5806 38.6758C59.7997 38.6758 60.0122 38.7515 60.1828 38.8904L78.6979 54.2984C78.7935 54.3783 78.9038 54.4384 79.0224 54.4753C79.141 54.5121 79.2656 54.525 79.3891 54.5132C79.5126 54.5014 79.6327 54.4651 79.7423 54.4064C79.852 54.3477 79.9491 54.2678 80.0281 54.1711L82.0352 51.7057C82.1143 51.6086 82.1735 51.4966 82.2096 51.3763C82.2456 51.2559 82.2578 51.1295 82.2454 51.0044C82.2329 50.8793 82.1961 50.7579 82.1371 50.6472C82.0781 50.5365 81.998 50.4386 81.9014 50.3593Z" fill="#2E2E38"/>
</g>
<g filter="url(#filter1_dd_23_61)">
<path d="M152.07 35.268V73.5H140.082V58.596H128.688V73.5H116.7V35.268H128.688V49.038H140.082V35.268H152.07ZM170.856 73.878C167.796 73.878 165.042 73.248 162.594 71.988C160.146 70.728 158.22 68.928 156.816 66.588C155.448 64.212 154.764 61.44 154.764 58.272C154.764 55.104 155.448 52.35 156.816 50.01C158.22 47.634 160.146 45.816 162.594 44.556C165.042 43.296 167.796 42.666 170.856 42.666C173.916 42.666 176.67 43.296 179.118 44.556C181.566 45.816 183.474 47.634 184.842 50.01C186.246 52.35 186.948 55.104 186.948 58.272C186.948 61.44 186.246 64.212 184.842 66.588C183.474 68.928 181.566 70.728 179.118 71.988C176.67 73.248 173.916 73.878 170.856 73.878ZM170.856 63.51C171.972 63.51 172.908 63.078 173.664 62.214C174.42 61.314 174.798 60 174.798 58.272C174.798 56.544 174.42 55.248 173.664 54.384C172.908 53.484 171.972 53.034 170.856 53.034C169.74 53.034 168.804 53.484 168.048 54.384C167.292 55.248 166.914 56.544 166.914 58.272C166.914 60 167.274 61.314 167.994 62.214C168.75 63.078 169.704 63.51 170.856 63.51ZM230.296 42.828C234.184 42.828 237.19 43.998 239.314 46.338C241.474 48.678 242.554 51.846 242.554 55.842V73.5H230.62V57.354C230.62 56.058 230.224 55.05 229.432 54.33C228.676 53.574 227.65 53.196 226.354 53.196C225.022 53.196 223.978 53.574 223.222 54.33C222.466 55.05 222.088 56.058 222.088 57.354V73.5H210.154V57.354C210.154 56.058 209.758 55.05 208.966 54.33C208.21 53.574 207.184 53.196 205.888 53.196C204.556 53.196 203.512 53.574 202.756 54.33C202 55.05 201.622 56.058 201.622 57.354V73.5H189.634V43.044H201.622V47.148C202.486 45.852 203.656 44.808 205.132 44.016C206.644 43.224 208.408 42.828 210.424 42.828C212.62 42.828 214.564 43.314 216.256 44.286C217.948 45.222 219.298 46.554 220.306 48.282C221.422 46.698 222.844 45.402 224.572 44.394C226.3 43.35 228.208 42.828 230.296 42.828ZM276.151 58.002C276.151 58.83 276.097 59.622 275.989 60.378H256.711C256.891 63.006 257.989 64.32 260.005 64.32C261.301 64.32 262.237 63.726 262.813 62.538H275.503C275.071 64.698 274.153 66.642 272.749 68.37C271.381 70.062 269.635 71.412 267.511 72.42C265.423 73.392 263.119 73.878 260.599 73.878C257.575 73.878 254.875 73.248 252.499 71.988C250.159 70.728 248.323 68.928 246.991 66.588C245.695 64.212 245.047 61.44 245.047 58.272C245.047 55.104 245.695 52.35 246.991 50.01C248.323 47.634 250.159 45.816 252.499 44.556C254.875 43.296 257.575 42.666 260.599 42.666C263.623 42.666 266.305 43.296 268.645 44.556C271.021 45.78 272.857 47.544 274.153 49.848C275.485 52.152 276.151 54.87 276.151 58.002ZM264.001 55.14C264.001 54.132 263.677 53.376 263.029 52.872C262.381 52.332 261.571 52.062 260.599 52.062C258.475 52.062 257.233 53.088 256.873 55.14H264.001ZM314.232 35.268V73.5H302.244V58.596H290.85V73.5H278.862V35.268H290.85V49.038H302.244V35.268H314.232ZM350.784 43.044V73.5H338.796V68.856C337.86 70.296 336.6 71.466 335.016 72.366C333.468 73.266 331.614 73.716 329.454 73.716C325.962 73.716 323.226 72.546 321.246 70.206C319.302 67.866 318.33 64.698 318.33 60.702V43.044H330.264V59.19C330.264 60.63 330.642 61.782 331.398 62.646C332.19 63.474 333.234 63.888 334.53 63.888C335.862 63.888 336.906 63.474 337.662 62.646C338.418 61.782 338.796 60.63 338.796 59.19V43.044H350.784ZM367.106 47.202C367.862 45.798 368.942 44.7 370.346 43.908C371.786 43.08 373.496 42.666 375.476 42.666C377.852 42.666 379.994 43.296 381.902 44.556C383.81 45.78 385.304 47.58 386.384 49.956C387.5 52.296 388.058 55.068 388.058 58.272C388.058 61.476 387.5 64.266 386.384 66.642C385.304 68.982 383.81 70.782 381.902 72.042C379.994 73.266 377.852 73.878 375.476 73.878C373.496 73.878 371.786 73.482 370.346 72.69C368.942 71.862 367.862 70.746 367.106 69.342V73.5H355.118V33.54H367.106V47.202ZM375.908 58.272C375.908 56.652 375.494 55.392 374.666 54.492C373.838 53.592 372.776 53.142 371.48 53.142C370.184 53.142 369.122 53.592 368.294 54.492C367.466 55.392 367.052 56.652 367.052 58.272C367.052 59.892 367.466 61.152 368.294 62.052C369.122 62.952 370.184 63.402 371.48 63.402C372.776 63.402 373.838 62.952 374.666 62.052C375.494 61.152 375.908 59.892 375.908 58.272Z" fill="url(#paint0_linear_23_61)"/>
</g>
<defs>
<filter id="filter0_dd_23_61" x="0" y="0" width="117" height="117" filterUnits="userSpaceOnUse" color-interpolation-filters="sRGB">
<feFlood flood-opacity="0" result="BackgroundImageFix"/>
<feColorMatrix in="SourceAlpha" type="matrix" values="0 0 0 0 0 0 0 0 0 0 0 0 0 0 0 0 0 0 127 0" result="hardAlpha"/>
<feOffset dy="1"/>
<feGaussianBlur stdDeviation="1.5"/>
<feColorMatrix type="matrix" values="0 0 0 0 0 0 0 0 0 0 0 0 0 0 0 0 0 0 0.3 0"/>
<feBlend mode="normal" in2="BackgroundImageFix" result="effect1_dropShadow_23_61"/>
<feColorMatrix in="SourceAlpha" type="matrix" values="0 0 0 0 0 0 0 0 0 0 0 0 0 0 0 0 0 0 127 0" result="hardAlpha"/>
<feMorphology radius="3" operator="dilate" in="SourceAlpha" result="effect2_dropShadow_23_61"/>
<feOffset dy="4"/>
<feGaussianBlur stdDeviation="4"/>
<feColorMatrix type="matrix" values="0 0 0 0 0 0 0 0 0 0 0 0 0 0 0 0 0 0 0.15 0"/>
<feBlend mode="normal" in2="effect1_dropShadow_23_61" result="effect2_dropShadow_23_61"/>
<feBlend mode="normal" in="SourceGraphic" in2="effect2_dropShadow_23_61" result="shape"/>
</filter>
<filter id="filter1_dd_23_61" x="105.7" y="26.54" width="293.359" height="62.338" filterUnits="userSpaceOnUse" color-interpolation-filters="sRGB">
<feFlood flood-opacity="0" result="BackgroundImageFix"/>
<feColorMatrix in="SourceAlpha" type="matrix" values="0 0 0 0 0 0 0 0 0 0 0 0 0 0 0 0 0 0 127 0" result="hardAlpha"/>
<feOffset dy="1"/>
<feGaussianBlur stdDeviation="1.5"/>
<feColorMatrix type="matrix" values="0 0 0 0 0 0 0 0 0 0 0 0 0 0 0 0 0 0 0.3 0"/>
<feBlend mode="normal" in2="BackgroundImageFix" result="effect1_dropShadow_23_61"/>
<feColorMatrix in="SourceAlpha" type="matrix" values="0 0 0 0 0 0 0 0 0 0 0 0 0 0 0 0 0 0 127 0" result="hardAlpha"/>
<feMorphology radius="3" operator="dilate" in="SourceAlpha" result="effect2_dropShadow_23_61"/>
<feOffset dy="4"/>
<feGaussianBlur stdDeviation="4"/>
<feColorMatrix type="matrix" values="0 0 0 0 0 0 0 0 0 0 0 0 0 0 0 0 0 0 0.15 0"/>
<feBlend mode="normal" in2="effect1_dropShadow_23_61" result="effect2_dropShadow_23_61"/>
<feBlend mode="normal" in="SourceGraphic" in2="effect2_dropShadow_23_61" result="shape"/>
</filter>
<linearGradient id="paint0_linear_23_61" x1="147.568" y1="70.5" x2="289.055" y2="-54.5867" gradientUnits="userSpaceOnUse">
<stop stop-color="#A0C4B0" stop-opacity="0.83"/>
<stop offset="1" stop-color="#2E2E38"/>
</linearGradient>
</defs>
</svg>
